<?xml version="1.0" standalone="no"?>
<!DOCTYPE svg PUBLIC "-//W3C//DTD SVG 20010904//EN"
 "http://www.w3.org/TR/2001/REC-SVG-20010904/DTD/svg10.dtd">
<svg version="1.0" xmlns="http://www.w3.org/2000/svg"
 width="192.000000pt" height="192.000000pt" viewBox="0 0 192.000000 192.000000"
 preserveAspectRatio="xMidYMid meet">

<g transform="translate(0.000000,192.000000) scale(0.100000,-0.100000)"
fill="currentColor" stroke="none">
<path d="M914 1895 c-14 -22 -14 -27 0 -56 13 -26 16 -70 16 -239 0 -199 -1
-208 -20 -213 -17 -4 -20 -14 -20 -71 l0 -66 -65 0 -65 0 0 58 c0 78 -5 84
-76 80 l-59 -3 -5 -65 -5 -65 -65 0 -65 0 -5 65 -5 65 -65 0 -65 0 -5 -340 -5
-340 -60 0 -60 0 -3 45 c-5 91 -5 91 -75 88 l-62 -3 -3 -418 -2 -417 345 0
345 0 0 208 c0 182 3 212 19 249 27 58 86 96 161 101 97 7 162 -25 203 -101
20 -39 22 -58 25 -250 l4 -207 339 0 339 0 -2 417 -3 418 -60 0 -60 0 -5 -65
-5 -65 -65 0 -65 0 -5 340 -5 340 -65 0 -65 0 -5 -65 -5 -65 -65 0 -65 0 -5
65 -5 65 -60 0 -60 0 -5 -65 -5 -65 -65 0 -65 0 -3 64 c-3 53 -6 64 -23 68
-18 5 -20 13 -17 77 l3 71 41 6 c23 3 76 1 117 -5 48 -6 88 -6 109 0 l33 10 3
124 3 125 -156 -1 c-85 0 -155 3 -155 7 0 4 8 21 17 37 16 28 16 31 0 56 -23
35 -70 36 -93 1z m-160 -801 c9 -24 7 -227 -3 -242 -5 -9 -26 -12 -67 -10
l-59 3 -3 133 -3 132 65 0 c49 0 65 -4 70 -16z m554 -108 c2 -80 -1 -123 -9
-133 -9 -10 -29 -13 -68 -11 l-56 3 -3 133 -3 133 68 -3 68 -3 3 -119z"/>
</g>
</svg>
